<?xml version="1.0" encoding="UTF-8"?>
<svg width="512px" height="512px" viewBox="0 0 512 512" version="1.1" xmlns="http://www.w3.org/2000/svg" xmlns:xlink="http://www.w3.org/1999/xlink">
    <!-- Generator: Sketch 53 (72520) - https://sketchapp.com -->
    <title>Shape</title>
    <desc>Created with Sketch.</desc>
    <g id="Page-1" stroke="none" stroke-width="1" fill="none" fill-rule="evenodd">
        <g id="phone-light" transform="translate(-1.000000, -1.000000)" fill="#FFFFFF" fill-rule="nonzero">
            <path d="M488.8,25.1 L388,1.8 C373.3,-1.6 358.2,6 352.2,19.9 L305.7,128.4 C300.2,141.1 303.9,156.1 314.6,164.9 L368.5,209 C334.5,278.2 278.2,334.6 208.9,368.6 L164.8,314.7 C156,304 141,300.3 128.3,305.8 L19.9,352.3 C6,358.3 -1.6,373.3 1.8,388 L25,488.7 C28.3,503 40.9,513 55.5,513 C307.7,513 513,308.8 513,55.5 C513,40.9 503,28.3 488.8,25.1 Z M56.1,481 L33.1,381.4 L140.5,335.4 L200,408.2 C303.6,359.6 359.7,303.3 408.1,200.1 L335.3,140.6 L381.3,33.2 L480.9,56.2 C480.7,290.7 290.6,480.7 56.1,481 Z" id="Shape"></path>
        </g>
    </g>
</svg>